<svg width="448" height="38" viewBox="0 0 448 38" fill="none" xmlns="http://www.w3.org/2000/svg">
<path d="M13.5644 2.91999C16.0604 2.91999 18.2204 3.27199 20.0444 3.976C21.9004 4.68 23.5804 5.752 25.0844 7.19199L21.4364 11.464C19.1644 9.608 16.7324 8.67999 14.1404 8.67999C12.7644 8.67999 11.6764 8.96799 10.8764 9.54399C10.0764 10.088 9.67636 10.888 9.67636 11.944C9.67636 12.68 9.85236 13.288 10.2044 13.768C10.5564 14.216 11.1804 14.648 12.0764 15.064C12.9724 15.48 14.3164 15.976 16.1084 16.552C19.5004 17.64 21.9964 18.984 23.5964 20.584C25.1964 22.152 25.9964 24.392 25.9964 27.304C25.9964 29.384 25.4684 31.224 24.4124 32.824C23.3564 34.392 21.8364 35.624 19.8524 36.52C17.8684 37.384 15.5164 37.816 12.7964 37.816C10.0764 37.816 7.66036 37.384 5.54836 36.52C3.46836 35.656 1.67636 34.504 0.172363 33.064L4.15636 28.696C5.43636 29.784 6.74836 30.6 8.09236 31.144C9.46836 31.688 10.9564 31.96 12.5564 31.96C14.1884 31.96 15.4684 31.608 16.3964 30.904C17.3564 30.168 17.8364 29.16 17.8364 27.88C17.8364 27.048 17.6604 26.36 17.3084 25.816C16.9564 25.24 16.3484 24.728 15.4844 24.28C14.6204 23.832 13.3724 23.352 11.7404 22.84C8.06036 21.72 5.43636 20.344 3.86836 18.712C2.33236 17.08 1.56436 15.016 1.56436 12.52C1.56436 10.6 2.07636 8.91999 3.10036 7.48C4.12436 6.008 5.54836 4.88799 7.37236 4.11999C9.19636 3.31999 11.2604 2.91999 13.5644 2.91999Z" fill="#141414"/>
<path d="M48.5211 29.608C48.5211 30.568 48.6491 31.272 48.9051 31.72C49.1931 32.168 49.6411 32.504 50.2491 32.728L48.6651 37.672C47.0971 37.544 45.8171 37.208 44.8251 36.664C43.8331 36.088 43.0651 35.192 42.5211 33.976C40.8571 36.536 38.2971 37.816 34.8411 37.816C32.3131 37.816 30.2971 37.08 28.7931 35.608C27.2891 34.136 26.5371 32.216 26.5371 29.848C26.5371 27.064 27.5611 24.936 29.6091 23.464C31.6571 21.992 34.6171 21.256 38.4891 21.256H41.0811V20.152C41.0811 18.648 40.7611 17.624 40.1211 17.08C39.4811 16.504 38.3611 16.216 36.7611 16.216C35.9291 16.216 34.9211 16.344 33.7371 16.6C32.5531 16.824 31.3371 17.144 30.0891 17.56L28.3611 12.568C29.9611 11.96 31.5931 11.496 33.2571 11.176C34.9531 10.856 36.5211 10.696 37.9611 10.696C41.6091 10.696 44.2811 11.448 45.9771 12.952C47.6731 14.456 48.5211 16.712 48.5211 19.72V29.608ZM37.0491 32.392C38.7771 32.392 40.1211 31.576 41.0811 29.944V25.432H39.2091C37.4811 25.432 36.1851 25.736 35.3211 26.344C34.4891 26.952 34.0731 27.896 34.0731 29.176C34.0731 30.2 34.3291 31 34.8411 31.576C35.3851 32.12 36.1211 32.392 37.0491 32.392Z" fill="#141414"/>
<path d="M80.818 10.696C82.834 10.696 84.45 11.384 85.666 12.76C86.882 14.104 87.49 15.976 87.49 18.376V37H79.906V19.672C79.906 17.4 79.186 16.264 77.746 16.264C76.946 16.264 76.242 16.536 75.634 17.08C75.026 17.624 74.434 18.456 73.858 19.576V37H66.274V19.672C66.274 17.4 65.554 16.264 64.114 16.264C63.346 16.264 62.642 16.552 62.002 17.128C61.394 17.672 60.802 18.488 60.226 19.576V37H52.642V11.512H59.266L59.794 14.488C60.786 13.208 61.874 12.264 63.058 11.656C64.274 11.016 65.65 10.696 67.186 10.696C68.626 10.696 69.858 11.048 70.882 11.752C71.938 12.456 72.706 13.448 73.186 14.728C74.21 13.352 75.33 12.344 76.546 11.704C77.794 11.032 79.218 10.696 80.818 10.696Z" fill="#141414"/>
<path d="M112.773 37H106.197L105.861 33.784C104.005 36.472 101.429 37.816 98.1329 37.816C95.7969 37.816 94.0209 37.112 92.8049 35.704C91.6209 34.296 91.0289 32.328 91.0289 29.8V11.512H98.6129V28.84C98.6129 30.088 98.8049 30.968 99.1889 31.48C99.6049 31.96 100.229 32.2 101.061 32.2C102.661 32.2 104.037 31.208 105.189 29.224V11.512H112.773V37Z" fill="#141414"/>
<path d="M139.042 23.752C139.042 24.808 138.994 25.72 138.898 26.488H123.106C123.362 28.632 123.97 30.136 124.93 31C125.89 31.864 127.218 32.296 128.914 32.296C129.938 32.296 130.93 32.12 131.89 31.768C132.85 31.384 133.89 30.808 135.01 30.04L138.13 34.264C135.154 36.632 131.842 37.816 128.194 37.816C124.066 37.816 120.898 36.6 118.69 34.168C116.482 31.736 115.378 28.472 115.378 24.376C115.378 21.784 115.842 19.464 116.77 17.416C117.698 15.336 119.058 13.704 120.85 12.52C122.642 11.304 124.786 10.696 127.282 10.696C130.962 10.696 133.842 11.848 135.922 14.152C138.002 16.456 139.042 19.656 139.042 23.752ZM131.602 21.592C131.538 17.688 130.162 15.736 127.474 15.736C126.162 15.736 125.138 16.216 124.402 17.176C123.698 18.136 123.266 19.72 123.106 21.928H131.602V21.592Z" fill="#141414"/>
<path d="M148.15 37.816C145.942 37.816 144.214 37.192 142.966 35.944C141.75 34.664 141.142 32.856 141.142 30.52V1.38399L148.726 0.567993V30.232C148.726 31.288 149.158 31.816 150.022 31.816C150.47 31.816 150.886 31.736 151.27 31.576L152.758 36.952C151.382 37.528 149.846 37.816 148.15 37.816Z" fill="#141414"/>
<path d="M183.501 2.91999C185.997 2.91999 188.157 3.27199 189.981 3.976C191.837 4.68 193.517 5.752 195.021 7.19199L191.373 11.464C189.101 9.608 186.669 8.67999 184.077 8.67999C182.701 8.67999 181.613 8.96799 180.813 9.54399C180.013 10.088 179.613 10.888 179.613 11.944C179.613 12.68 179.789 13.288 180.141 13.768C180.493 14.216 181.117 14.648 182.013 15.064C182.909 15.48 184.253 15.976 186.045 16.552C189.437 17.64 191.933 18.984 193.533 20.584C195.133 22.152 195.933 24.392 195.933 27.304C195.933 29.384 195.405 31.224 194.349 32.824C193.293 34.392 191.773 35.624 189.789 36.52C187.805 37.384 185.453 37.816 182.733 37.816C180.013 37.816 177.597 37.384 175.485 36.52C173.405 35.656 171.613 34.504 170.109 33.064L174.093 28.696C175.373 29.784 176.685 30.6 178.029 31.144C179.405 31.688 180.893 31.96 182.493 31.96C184.125 31.96 185.405 31.608 186.333 30.904C187.293 30.168 187.773 29.16 187.773 27.88C187.773 27.048 187.597 26.36 187.245 25.816C186.893 25.24 186.285 24.728 185.421 24.28C184.557 23.832 183.309 23.352 181.677 22.84C177.997 21.72 175.373 20.344 173.805 18.712C172.269 17.08 171.501 15.016 171.501 12.52C171.501 10.6 172.013 8.91999 173.037 7.48C174.061 6.008 175.485 4.88799 177.309 4.11999C179.133 3.31999 181.197 2.91999 183.501 2.91999Z" fill="#141414"/>
<path d="M209.242 10.696C213.146 10.696 216.202 11.896 218.41 14.296C220.618 16.664 221.722 19.992 221.722 24.28C221.722 27 221.21 29.384 220.186 31.432C219.194 33.448 217.754 35.016 215.866 36.136C214.01 37.256 211.802 37.816 209.242 37.816C205.37 37.816 202.314 36.632 200.074 34.264C197.866 31.864 196.762 28.52 196.762 24.232C196.762 21.512 197.258 19.144 198.25 17.128C199.274 15.08 200.714 13.496 202.57 12.376C204.458 11.256 206.682 10.696 209.242 10.696ZM209.242 16.264C207.706 16.264 206.554 16.92 205.786 18.232C205.018 19.512 204.634 21.512 204.634 24.232C204.634 27.016 205.002 29.048 205.738 30.328C206.506 31.608 207.674 32.248 209.242 32.248C210.778 32.248 211.93 31.608 212.698 30.328C213.466 29.016 213.85 27 213.85 24.28C213.85 21.496 213.466 19.464 212.698 18.184C211.962 16.904 210.81 16.264 209.242 16.264Z" fill="#141414"/>
<path d="M244.1 29.608C244.1 30.568 244.228 31.272 244.484 31.72C244.772 32.168 245.22 32.504 245.828 32.728L244.244 37.672C242.676 37.544 241.396 37.208 240.404 36.664C239.412 36.088 238.644 35.192 238.1 33.976C236.436 36.536 233.876 37.816 230.42 37.816C227.892 37.816 225.876 37.08 224.372 35.608C222.868 34.136 222.116 32.216 222.116 29.848C222.116 27.064 223.14 24.936 225.188 23.464C227.236 21.992 230.196 21.256 234.068 21.256H236.66V20.152C236.66 18.648 236.34 17.624 235.7 17.08C235.06 16.504 233.94 16.216 232.34 16.216C231.508 16.216 230.5 16.344 229.316 16.6C228.132 16.824 226.916 17.144 225.668 17.56L223.94 12.568C225.54 11.96 227.172 11.496 228.836 11.176C230.532 10.856 232.1 10.696 233.54 10.696C237.188 10.696 239.86 11.448 241.556 12.952C243.252 14.456 244.1 16.712 244.1 19.72V29.608ZM232.628 32.392C234.356 32.392 235.7 31.576 236.66 29.944V25.432H234.788C233.06 25.432 231.764 25.736 230.9 26.344C230.068 26.952 229.652 27.896 229.652 29.176C229.652 30.2 229.908 31 230.42 31.576C230.964 32.12 231.7 32.392 232.628 32.392Z" fill="#141414"/>
<path d="M262.045 10.792C262.973 10.792 263.821 10.904 264.589 11.128L263.389 18.472C262.429 18.248 261.661 18.136 261.085 18.136C259.581 18.136 258.429 18.664 257.629 19.72C256.861 20.744 256.253 22.296 255.805 24.376V37H248.221V11.512H254.845L255.469 16.456C256.045 14.696 256.909 13.32 258.061 12.328C259.245 11.304 260.573 10.792 262.045 10.792Z" fill="#141414"/>
<path d="M286.338 23.752C286.338 24.808 286.29 25.72 286.194 26.488H270.402C270.658 28.632 271.266 30.136 272.226 31C273.186 31.864 274.514 32.296 276.21 32.296C277.234 32.296 278.226 32.12 279.186 31.768C280.146 31.384 281.186 30.808 282.306 30.04L285.426 34.264C282.45 36.632 279.138 37.816 275.49 37.816C271.362 37.816 268.194 36.6 265.986 34.168C263.778 31.736 262.674 28.472 262.674 24.376C262.674 21.784 263.138 19.464 264.066 17.416C264.994 15.336 266.354 13.704 268.146 12.52C269.938 11.304 272.082 10.696 274.578 10.696C278.258 10.696 281.138 11.848 283.218 14.152C285.298 16.456 286.338 19.656 286.338 23.752ZM278.898 21.592C278.834 17.688 277.458 15.736 274.77 15.736C273.458 15.736 272.434 16.216 271.698 17.176C270.994 18.136 270.562 19.72 270.402 21.928H278.898V21.592Z" fill="#141414"/>
<path d="M297.654 10.696C299.478 10.696 301.19 10.968 302.79 11.512C304.39 12.056 305.798 12.824 307.014 13.816L304.23 18.088C302.15 16.776 300.054 16.12 297.942 16.12C296.95 16.12 296.182 16.296 295.638 16.648C295.126 16.968 294.87 17.432 294.87 18.04C294.87 18.52 294.982 18.92 295.206 19.24C295.462 19.528 295.958 19.832 296.694 20.152C297.43 20.472 298.566 20.856 300.102 21.304C302.758 22.072 304.726 23.08 306.006 24.328C307.318 25.544 307.974 27.24 307.974 29.416C307.974 31.144 307.478 32.648 306.486 33.928C305.494 35.176 304.134 36.136 302.406 36.808C300.678 37.48 298.758 37.816 296.646 37.816C294.502 37.816 292.502 37.48 290.646 36.808C288.822 36.136 287.27 35.208 285.99 34.024L289.686 29.896C291.83 31.56 294.086 32.392 296.454 32.392C297.606 32.392 298.502 32.184 299.142 31.768C299.814 31.352 300.15 30.76 300.15 29.992C300.15 29.384 300.022 28.904 299.766 28.552C299.51 28.2 299.014 27.88 298.278 27.592C297.542 27.272 296.374 26.888 294.774 26.44C292.246 25.704 290.358 24.68 289.11 23.368C287.862 22.056 287.238 20.424 287.238 18.472C287.238 17 287.654 15.688 288.486 14.536C289.35 13.352 290.566 12.424 292.134 11.752C293.734 11.048 295.574 10.696 297.654 10.696Z" fill="#141414"/>
<path d="M339.751 2.91999C342.247 2.91999 344.407 3.27199 346.231 3.976C348.087 4.68 349.767 5.752 351.271 7.19199L347.623 11.464C345.351 9.608 342.919 8.67999 340.327 8.67999C338.951 8.67999 337.863 8.96799 337.063 9.54399C336.263 10.088 335.863 10.888 335.863 11.944C335.863 12.68 336.039 13.288 336.391 13.768C336.743 14.216 337.367 14.648 338.263 15.064C339.159 15.48 340.503 15.976 342.295 16.552C345.687 17.64 348.183 18.984 349.783 20.584C351.383 22.152 352.183 24.392 352.183 27.304C352.183 29.384 351.655 31.224 350.599 32.824C349.543 34.392 348.023 35.624 346.039 36.52C344.055 37.384 341.703 37.816 338.983 37.816C336.263 37.816 333.847 37.384 331.735 36.52C329.655 35.656 327.863 34.504 326.359 33.064L330.343 28.696C331.623 29.784 332.935 30.6 334.279 31.144C335.655 31.688 337.143 31.96 338.743 31.96C340.375 31.96 341.655 31.608 342.583 30.904C343.543 30.168 344.023 29.16 344.023 27.88C344.023 27.048 343.847 26.36 343.495 25.816C343.143 25.24 342.535 24.728 341.671 24.28C340.807 23.832 339.559 23.352 337.927 22.84C334.247 21.72 331.623 20.344 330.055 18.712C328.519 17.08 327.751 15.016 327.751 12.52C327.751 10.6 328.263 8.91999 329.287 7.48C330.311 6.008 331.735 4.88799 333.559 4.11999C335.383 3.31999 337.447 2.91999 339.751 2.91999Z" fill="#141414"/>
<path d="M365.491 10.696C369.395 10.696 372.451 11.896 374.659 14.296C376.867 16.664 377.971 19.992 377.971 24.28C377.971 27 377.459 29.384 376.435 31.432C375.443 33.448 374.003 35.016 372.115 36.136C370.259 37.256 368.051 37.816 365.491 37.816C361.619 37.816 358.563 36.632 356.323 34.264C354.115 31.864 353.011 28.52 353.011 24.232C353.011 21.512 353.507 19.144 354.499 17.128C355.523 15.08 356.963 13.496 358.819 12.376C360.707 11.256 362.931 10.696 365.491 10.696ZM365.491 16.264C363.955 16.264 362.803 16.92 362.035 18.232C361.267 19.512 360.883 21.512 360.883 24.232C360.883 27.016 361.251 29.048 361.987 30.328C362.755 31.608 363.923 32.248 365.491 32.248C367.027 32.248 368.179 31.608 368.947 30.328C369.715 29.016 370.099 27 370.099 24.28C370.099 21.496 369.715 19.464 368.947 18.184C368.211 16.904 367.059 16.264 365.491 16.264Z" fill="#141414"/>
<path d="M402.067 37H395.491L395.155 33.784C393.299 36.472 390.723 37.816 387.427 37.816C385.091 37.816 383.315 37.112 382.099 35.704C380.915 34.296 380.323 32.328 380.323 29.8V11.512H387.907V28.84C387.907 30.088 388.099 30.968 388.483 31.48C388.899 31.96 389.523 32.2 390.355 32.2C391.955 32.2 393.331 31.208 394.483 29.224V11.512H402.067V37Z" fill="#141414"/>
<path d="M424.063 11.512V16.84L412.543 31.24H424.303L423.631 37H403.759V31.624L415.327 17.224H404.767V11.512H424.063Z" fill="#141414"/>
<path d="M445.775 29.608C445.775 30.568 445.903 31.272 446.159 31.72C446.447 32.168 446.896 32.504 447.504 32.728L445.919 37.672C444.351 37.544 443.071 37.208 442.079 36.664C441.087 36.088 440.319 35.192 439.775 33.976C438.111 36.536 435.551 37.816 432.095 37.816C429.567 37.816 427.551 37.08 426.047 35.608C424.543 34.136 423.792 32.216 423.792 29.848C423.792 27.064 424.815 24.936 426.863 23.464C428.911 21.992 431.872 21.256 435.743 21.256H438.336V20.152C438.336 18.648 438.015 17.624 437.375 17.08C436.735 16.504 435.616 16.216 434.016 16.216C433.184 16.216 432.175 16.344 430.991 16.6C429.807 16.824 428.592 17.144 427.344 17.56L425.616 12.568C427.216 11.96 428.848 11.496 430.512 11.176C432.208 10.856 433.775 10.696 435.215 10.696C438.863 10.696 441.536 11.448 443.232 12.952C444.928 14.456 445.775 16.712 445.775 19.72V29.608ZM434.303 32.392C436.031 32.392 437.376 31.576 438.336 29.944V25.432H436.464C434.736 25.432 433.44 25.736 432.576 26.344C431.744 26.952 431.327 27.896 431.327 29.176C431.327 30.2 431.583 31 432.095 31.576C432.639 32.12 433.375 32.392 434.303 32.392Z" fill="#141414"/>
</svg>
