<svg width="576" height="53" viewBox="0 0 576 53" fill="none" xmlns="http://www.w3.org/2000/svg">
<path d="M16.024 52.888C11.16 52.888 7.32 52.0347 4.504 50.328C1.73067 48.5787 0.344 46.296 0.344 43.48C0.344 40.3653 1.88 37.4427 4.952 34.712C8.23733 31.8107 12.5467 29.848 17.88 28.824C18.6053 28.696 19.3733 28.5893 20.184 28.504C20.9947 28.4187 21.8053 28.376 22.616 28.376C27.5653 28.376 30.9147 29.5707 32.664 31.96C32.8347 32.1733 32.92 32.4507 32.92 32.792C32.92 33.4747 32.728 33.5813 32.344 33.112C30.808 30.936 27.4587 29.848 22.296 29.848C20.6747 29.848 19.224 29.976 17.944 30.232C13.464 31.0853 9.90133 32.7707 7.256 35.288C4.73867 37.6773 3.48 40.216 3.48 42.904C3.48 45.464 4.632 47.512 6.936 49.048C9.19733 50.584 12.2693 51.352 16.152 51.352C19.8213 51.352 23.2133 50.904 26.328 50.008C29.4427 49.1547 32.3013 47.9387 34.904 46.36C39.1707 43.7573 41.304 40.3013 41.304 35.992C41.304 31.0427 38.2107 26.584 32.024 22.616C30.4453 21.592 29.1227 20.696 28.056 19.928C26.9893 19.1173 26.1573 18.4347 25.56 17.88C23.2987 15.704 22.168 13.4 22.168 10.968C22.168 10.328 22.232 9.73067 22.36 9.176C22.9573 6.40267 24.8133 4.16267 27.928 2.456C30.7867 0.877331 33.88 0.0879974 37.208 0.0879974C41.0053 0.0879974 43.8853 0.749331 45.848 2.072C47.256 3.01067 47.96 4.44 47.96 6.36C47.96 7.59733 47.5973 8.74933 46.872 9.816C46.1893 10.84 45.2933 11.352 44.184 11.352C43.3733 11.352 42.648 11.032 42.008 10.392C41.4533 9.83733 41.176 9.176 41.176 8.408C41.176 6.36 42.1787 5.336 44.184 5.336C45.3787 5.336 46.104 5.72 46.36 6.488C46.5733 5.336 46.1253 4.33333 45.016 3.48C43.2667 2.11467 40.984 1.432 38.168 1.432C35.224 1.432 32.536 2.264 30.104 3.928C27.5013 5.67733 26.2 7.704 26.2 10.008C26.2 12.9947 28.9307 16.0667 34.392 19.224C42.0293 23.576 45.848 28.6107 45.848 34.328C45.848 36.8453 45.0373 39.2773 43.416 41.624C41.7947 44.0133 39.64 45.976 36.952 47.512C30.808 51.096 23.832 52.888 16.024 52.888ZM67.3595 47.128C66.4208 47.128 65.6528 46.8507 65.0555 46.296C64.2022 45.5707 63.7755 44.3547 63.7755 42.648C63.7755 41.5387 63.9675 40.28 64.3515 38.872C62.9008 41.304 61.3862 43.288 59.8075 44.824C58.1862 46.3173 56.7355 47.064 55.4555 47.064C54.3462 47.064 53.4715 46.5733 52.8315 45.592C52.1488 44.6533 51.8075 43.352 51.8075 41.688C51.8075 37.6347 53.6208 33.4533 57.2475 29.144C57.8448 28.4187 58.5275 27.7573 59.2955 27.16C60.0635 26.5627 60.8955 26.0293 61.7915 25.56C63.6262 24.6213 65.3968 24.152 67.1035 24.152C69.1942 24.152 70.8582 24.8347 72.0955 26.2C72.3942 26.4987 72.5435 26.84 72.5435 27.224C72.5435 27.9493 72.1595 28.2267 71.3915 28.056C70.9648 26.52 69.9622 25.752 68.3835 25.752C66.5915 25.752 64.4795 27.0107 62.0475 29.528C61.1942 30.4667 60.3835 31.448 59.6155 32.472C58.8475 33.4533 58.1222 34.4987 57.4395 35.608C55.6048 38.68 54.6875 41.176 54.6875 43.096C54.6875 44.5467 55.2422 45.272 56.3515 45.272C57.5888 45.272 59.0182 44.3333 60.6395 42.456C61.5355 41.432 62.4528 40.1733 63.3915 38.68C64.3302 37.1867 65.3115 35.4587 66.3355 33.496C66.7622 32.6853 67.1462 32.024 67.4875 31.512C67.8288 31 68.1062 30.616 68.3195 30.36C69.0022 29.6773 69.8128 29.3573 70.7515 29.4L72.0315 29.592C72.5862 29.72 73.0555 29.7413 73.4395 29.656C73.0555 30.04 72.5862 30.6587 72.0315 31.512C71.5195 32.3227 70.9222 33.3893 70.2395 34.712C69.5142 36.12 68.9168 37.4 68.4475 38.552C67.9782 39.704 67.6582 40.728 67.4875 41.624C67.4022 42.0507 67.3382 42.456 67.2955 42.84C67.2528 43.1813 67.2315 43.5013 67.2315 43.8C67.2315 44.9093 67.5302 45.464 68.1275 45.464C68.9808 45.464 70.1542 44.5253 71.6475 42.648L71.9035 42.328L72.7995 42.904L72.5435 43.288C70.7942 45.848 69.0662 47.128 67.3595 47.128ZM76.665 47.448C77.5183 45.3573 78.585 42.776 79.865 39.704C81.145 36.632 82.7023 33.0907 84.537 29.08C84.921 28.2267 85.2837 27.5227 85.625 26.968C85.9663 26.4133 86.2863 25.9867 86.585 25.688C87.1823 25.0907 87.9503 24.792 88.889 24.792C88.9743 24.792 89.1237 24.792 89.337 24.792C89.5503 24.792 89.849 24.8347 90.233 24.92C90.8303 24.9627 91.2783 24.9627 91.577 24.92C89.9983 25.8587 87.6303 29.9973 84.473 37.336C84.9423 36.7387 85.5397 35.992 86.265 35.096C86.9903 34.1573 87.929 33.1333 89.081 32.024C90.2757 30.872 91.257 29.976 92.025 29.336C92.793 28.696 93.3263 28.2693 93.625 28.056C95.5023 26.648 96.889 25.944 97.785 25.944C99.0223 25.944 99.641 26.5413 99.641 27.736C99.641 28.12 99.5557 28.4827 99.385 28.824C98.873 29.8053 98.2117 31.0427 97.401 32.536C96.633 34.0293 95.737 35.7787 94.713 37.784C96.761 35.224 98.5317 33.2827 100.025 31.96C100.793 31.2773 101.646 30.616 102.585 29.976C103.566 29.336 104.612 28.696 105.721 28.056C108.153 26.648 109.988 25.944 111.225 25.944C111.524 25.944 111.737 25.9653 111.865 26.008C111.182 27.2027 110.542 28.3547 109.945 29.464C109.39 30.5733 108.857 31.6187 108.345 32.6C107.15 34.9467 106.212 36.952 105.529 38.616C104.846 40.28 104.398 41.5813 104.185 42.52C104.142 42.8187 104.1 43.096 104.057 43.352C104.057 43.608 104.057 43.8427 104.057 44.056C104.057 45.1653 104.462 45.72 105.273 45.72C106.596 45.72 108.174 44.376 110.009 41.688L110.905 42.328C108.729 45.6133 106.553 47.256 104.377 47.256C101.689 47.256 100.345 45.8693 100.345 43.096C100.345 40.792 101.71 37.4427 104.441 33.048C104.868 32.3653 105.081 31.7893 105.081 31.32C105.081 30.808 104.868 30.552 104.441 30.552C103.972 30.552 103.353 30.808 102.585 31.32C101.817 31.7893 100.942 32.472 99.961 33.368C99.1503 34.136 98.297 35.0533 97.401 36.12C96.5477 37.1867 95.6303 38.4027 94.649 39.768C92.5157 42.8827 91.257 45.2933 90.873 47C90.1477 47 89.593 46.6587 89.209 45.976C88.9103 45.3787 88.761 44.7813 88.761 44.184C88.761 43.3307 89.0597 42.2 89.657 40.792C90.2543 39.384 91.0863 37.6773 92.153 35.672C93.3903 33.4533 94.009 31.8533 94.009 30.872C94.009 30.4453 93.8383 30.232 93.497 30.232C92.8143 30.232 91.2997 31.2987 88.953 33.432C88.3557 33.9867 87.7157 34.6907 87.033 35.544C86.393 36.3547 85.7103 37.3147 84.985 38.424C83.321 40.8987 82.041 43.3733 81.145 45.848C80.889 46.488 80.2277 46.872 79.161 47C77.7957 47.128 76.9637 47.2773 76.665 47.448ZM120.059 46.936C117.329 46.936 115.963 45.656 115.963 43.096C115.963 42.2 116.219 41.0053 116.731 39.512C117.243 37.976 117.969 36.1627 118.907 34.072L122.427 26.328C122.811 25.432 123.643 24.984 124.923 24.984H128.763C127.27 26.0933 125.905 27.8853 124.667 30.36C124.198 31.2987 123.622 32.472 122.939 33.88C122.299 35.2453 121.553 36.824 120.699 38.616C119.889 40.28 119.483 41.7733 119.483 43.096C119.483 44.4613 119.953 45.144 120.891 45.144C121.915 45.144 123.131 44.3333 124.539 42.712C126.886 39.9813 130.043 34.52 134.011 26.328C134.481 25.432 135.291 24.984 136.443 24.984H139.899C138.492 26.136 137.02 28.248 135.483 31.32C133.35 35.6293 132.07 38.9147 131.643 41.176C131.601 41.432 131.558 41.6667 131.515 41.88C131.515 42.0933 131.515 42.3067 131.515 42.52C131.515 44.184 132.091 45.016 133.243 45.016C134.481 45.016 135.931 43.8 137.595 41.368L138.556 41.816C136.251 45.2293 133.969 46.936 131.707 46.936C129.318 46.936 128.123 45.4213 128.123 42.392C128.123 41.24 128.337 40.024 128.763 38.744C125.606 44.2053 122.705 46.936 120.059 46.936ZM148.925 47.256C147.261 47.256 145.832 46.7227 144.637 45.656C143.997 45.0587 143.528 44.376 143.229 43.608C142.973 42.7973 142.845 41.88 142.845 40.856C142.845 36.9307 144.466 33.0267 147.709 29.144C150.44 25.8587 153.277 24.216 156.221 24.216C157.202 24.216 158.034 24.472 158.717 24.984C159.442 25.5813 159.805 26.3493 159.805 27.288C159.805 29.6347 158.248 31.9813 155.133 34.328C154.152 35.0533 152.85 35.6933 151.229 36.248C149.437 36.8453 148.136 37.144 147.325 37.144C146.728 38.5947 146.429 40.1307 146.429 41.752C146.429 44.5253 147.453 45.912 149.501 45.912C152.189 45.912 154.706 44.1627 157.053 40.664L157.309 40.28L158.397 40.728L158.205 41.112C157.138 43.2453 155.794 44.8027 154.173 45.784C152.552 46.7653 150.802 47.256 148.925 47.256ZM147.709 36.056C148.434 36.056 149.437 35.8213 150.717 35.352C151.442 35.0533 152.125 34.7333 152.765 34.392C153.448 34.0507 154.045 33.6667 154.557 33.24C156.904 31.2773 158.077 29.208 158.077 27.032C158.077 26.0933 157.736 25.624 157.053 25.624C155.858 25.624 154.045 27.096 151.613 30.04C150.376 31.5333 149.074 33.5387 147.709 36.056ZM164.967 47C163.729 47 163.111 46.3813 163.111 45.144C163.111 44.376 163.367 43.3307 163.879 42.008L176.295 10.264C176.38 10.136 176.423 10.008 176.423 9.88C176.423 9.752 176.423 9.64533 176.423 9.56C176.423 8.92 176.167 8.25866 175.655 7.576H179.111C180.305 7.576 180.903 7.85333 180.903 8.408C180.903 8.664 180.775 9.112 180.519 9.752L168.103 41.368C167.548 42.7333 167.271 43.9493 167.271 45.016C167.271 45.9973 167.569 46.6587 168.167 47H164.967ZM208.361 52.888C203.497 52.888 199.657 52.0347 196.841 50.328C194.068 48.5787 192.681 46.296 192.681 43.48C192.681 40.3653 194.217 37.4427 197.289 34.712C200.575 31.8107 204.884 29.848 210.217 28.824C210.943 28.696 211.711 28.5893 212.521 28.504C213.332 28.4187 214.143 28.376 214.953 28.376C219.903 28.376 223.252 29.5707 225.001 31.96C225.172 32.1733 225.257 32.4507 225.257 32.792C225.257 33.4747 225.065 33.5813 224.681 33.112C223.145 30.936 219.796 29.848 214.633 29.848C213.012 29.848 211.561 29.976 210.281 30.232C205.801 31.0853 202.239 32.7707 199.593 35.288C197.076 37.6773 195.817 40.216 195.817 42.904C195.817 45.464 196.969 47.512 199.273 49.048C201.535 50.584 204.607 51.352 208.489 51.352C212.159 51.352 215.551 50.904 218.665 50.008C221.78 49.1547 224.639 47.9387 227.241 46.36C231.508 43.7573 233.641 40.3013 233.641 35.992C233.641 31.0427 230.548 26.584 224.361 22.616C222.783 21.592 221.46 20.696 220.393 19.928C219.327 19.1173 218.495 18.4347 217.897 17.88C215.636 15.704 214.505 13.4 214.505 10.968C214.505 10.328 214.569 9.73067 214.697 9.176C215.295 6.40267 217.151 4.16267 220.265 2.456C223.124 0.877331 226.217 0.0879974 229.545 0.0879974C233.343 0.0879974 236.223 0.749331 238.185 2.072C239.593 3.01067 240.297 4.44 240.297 6.36C240.297 7.59733 239.935 8.74933 239.209 9.816C238.527 10.84 237.631 11.352 236.521 11.352C235.711 11.352 234.985 11.032 234.345 10.392C233.791 9.83733 233.513 9.176 233.513 8.408C233.513 6.36 234.516 5.336 236.521 5.336C237.716 5.336 238.441 5.72 238.697 6.488C238.911 5.336 238.463 4.33333 237.353 3.48C235.604 2.11467 233.321 1.432 230.505 1.432C227.561 1.432 224.873 2.264 222.441 3.928C219.839 5.67733 218.537 7.704 218.537 10.008C218.537 12.9947 221.268 16.0667 226.729 19.224C234.367 23.576 238.185 28.6107 238.185 34.328C238.185 36.8453 237.375 39.2773 235.753 41.624C234.132 44.0133 231.977 45.976 229.289 47.512C223.145 51.096 216.169 52.888 208.361 52.888ZM249.265 47C246.15 47 244.593 45.1013 244.593 41.304C244.593 39.4267 245.041 37.4427 245.937 35.352C247.217 32.3227 249.03 29.7627 251.377 27.672C253.681 25.624 255.857 24.6 257.905 24.6C261.062 24.6 262.641 26.456 262.641 30.168C262.641 32.088 262.172 34.1147 261.233 36.248C260.124 38.808 258.524 41.1333 256.433 43.224C253.83 45.7413 251.441 47 249.265 47ZM250.289 45.592C251.27 45.592 252.316 45.1867 253.425 44.376C254.833 43.352 256.433 41.2187 258.225 37.976C260.188 34.4773 261.169 31.6613 261.169 29.528C261.169 27.608 260.358 26.648 258.737 26.648C257.457 26.648 256.006 27.4587 254.385 29.08C252.806 30.6587 251.462 32.664 250.353 35.096C248.86 38.296 248.113 40.856 248.113 42.776C248.113 44.6533 248.838 45.592 250.289 45.592ZM281.397 47.128C280.458 47.128 279.69 46.8507 279.093 46.296C278.24 45.5707 277.813 44.3547 277.813 42.648C277.813 41.5387 278.005 40.28 278.389 38.872C276.938 41.304 275.424 43.288 273.845 44.824C272.224 46.3173 270.773 47.064 269.493 47.064C268.384 47.064 267.509 46.5733 266.869 45.592C266.186 44.6533 265.845 43.352 265.845 41.688C265.845 37.6347 267.658 33.4533 271.285 29.144C271.882 28.4187 272.565 27.7573 273.333 27.16C274.101 26.5627 274.933 26.0293 275.829 25.56C277.664 24.6213 279.434 24.152 281.141 24.152C283.232 24.152 284.896 24.8347 286.133 26.2C286.432 26.4987 286.581 26.84 286.581 27.224C286.581 27.9493 286.197 28.2267 285.429 28.056C285.002 26.52 284 25.752 282.421 25.752C280.629 25.752 278.517 27.0107 276.085 29.528C275.232 30.4667 274.421 31.448 273.653 32.472C272.885 33.4533 272.16 34.4987 271.477 35.608C269.642 38.68 268.725 41.176 268.725 43.096C268.725 44.5467 269.28 45.272 270.389 45.272C271.626 45.272 273.056 44.3333 274.677 42.456C275.573 41.432 276.49 40.1733 277.429 38.68C278.368 37.1867 279.349 35.4587 280.373 33.496C280.8 32.6853 281.184 32.024 281.525 31.512C281.866 31 282.144 30.616 282.357 30.36C283.04 29.6773 283.85 29.3573 284.789 29.4L286.069 29.592C286.624 29.72 287.093 29.7413 287.477 29.656C287.093 30.04 286.624 30.6587 286.069 31.512C285.557 32.3227 284.96 33.3893 284.277 34.712C283.552 36.12 282.954 37.4 282.485 38.552C282.016 39.704 281.696 40.728 281.525 41.624C281.44 42.0507 281.376 42.456 281.333 42.84C281.29 43.1813 281.269 43.5013 281.269 43.8C281.269 44.9093 281.568 45.464 282.165 45.464C283.018 45.464 284.192 44.5253 285.685 42.648L285.941 42.328L286.837 42.904L286.581 43.288C284.832 45.848 283.104 47.128 281.397 47.128ZM290.703 47.448C291.513 45.4 292.58 42.84 293.903 39.768C295.268 36.696 296.804 33.1973 298.51 29.272C298.852 28.4187 299.172 27.736 299.47 27.224C299.812 26.712 300.111 26.3067 300.367 26.008C300.921 25.368 301.668 25.112 302.607 25.24L303.951 25.432C304.249 25.4747 304.505 25.5173 304.719 25.56C304.975 25.56 305.188 25.5387 305.359 25.496C304.505 25.9227 303.503 27.1387 302.351 29.144C301.241 31.1067 300.004 33.7947 298.639 37.208C299.108 36.6107 299.705 35.8213 300.431 34.84C301.156 33.816 302.073 32.6427 303.183 31.32C304.42 29.8693 305.7 28.5253 307.023 27.288C308.345 26.0507 309.625 25.432 310.863 25.432C311.844 25.432 312.548 25.752 312.975 26.392C313.401 27.032 313.615 27.7573 313.615 28.568C313.615 29.5493 313.231 30.424 312.463 31.192C311.695 31.96 310.948 32.344 310.223 32.344C309.924 32.344 309.604 32.28 309.263 32.152C308.964 32.024 308.815 31.832 308.815 31.576C308.815 31.3627 308.857 31.1707 308.943 31C309.028 30.7867 309.071 30.552 309.071 30.296C309.071 29.656 308.772 29.336 308.175 29.336C307.961 29.336 307.663 29.4 307.279 29.528C306.937 29.6133 306.468 29.9547 305.871 30.552C304.676 31.6613 303.375 33.0053 301.967 34.584C300.601 36.12 299.3 37.848 298.062 39.768C296.868 41.688 295.887 43.8 295.119 46.104C294.905 46.744 294.265 47.0853 293.199 47.128C291.748 47.2133 290.916 47.32 290.703 47.448ZM320.138 47.256C318.474 47.256 317.044 46.7227 315.85 45.656C315.21 45.0587 314.74 44.376 314.442 43.608C314.186 42.7973 314.058 41.88 314.058 40.856C314.058 36.9307 315.679 33.0267 318.922 29.144C321.652 25.8587 324.49 24.216 327.434 24.216C328.415 24.216 329.247 24.472 329.93 24.984C330.655 25.5813 331.018 26.3493 331.018 27.288C331.018 29.6347 329.46 31.9813 326.346 34.328C325.364 35.0533 324.063 35.6933 322.442 36.248C320.65 36.8453 319.348 37.144 318.538 37.144C317.94 38.5947 317.642 40.1307 317.642 41.752C317.642 44.5253 318.666 45.912 320.714 45.912C323.402 45.912 325.919 44.1627 328.266 40.664L328.522 40.28L329.61 40.728L329.418 41.112C328.351 43.2453 327.007 44.8027 325.386 45.784C323.764 46.7653 322.015 47.256 320.138 47.256ZM318.922 36.056C319.647 36.056 320.65 35.8213 321.93 35.352C322.655 35.0533 323.338 34.7333 323.978 34.392C324.66 34.0507 325.258 33.6667 325.77 33.24C328.116 31.2773 329.29 29.208 329.29 27.032C329.29 26.0933 328.948 25.624 328.266 25.624C327.071 25.624 325.258 27.096 322.826 30.04C321.588 31.5333 320.287 33.5387 318.922 36.056ZM339.571 47.256C337.438 47.256 335.795 46.616 334.643 45.336C333.704 44.2693 333.235 42.9893 333.235 41.496C333.235 39.32 333.918 38.232 335.283 38.232C335.795 38.232 336.264 38.424 336.691 38.808C337.118 39.2347 337.331 39.7253 337.331 40.28C337.331 40.6213 337.246 40.8987 337.075 41.112C336.52 41.7947 336.243 42.5413 336.243 43.352C336.243 44.1627 336.499 44.824 337.011 45.336C337.566 45.8907 338.27 46.168 339.123 46.168C340.019 46.168 340.83 45.8693 341.555 45.272C342.536 44.376 343.027 43.1387 343.027 41.56C343.027 40.1947 342.664 38.6587 341.939 36.952C341.64 36.5253 341.278 35.9707 340.851 35.288C340.467 34.6053 340.019 33.7947 339.507 32.856C339.208 32.344 338.995 31.832 338.867 31.32C338.782 30.7653 338.739 30.232 338.739 29.72C338.739 27.928 339.4 26.4987 340.723 25.432C342.088 24.3227 343.838 23.768 345.971 23.768C346.568 23.768 347.144 23.832 347.699 23.96C348.296 24.088 348.83 24.3227 349.299 24.664C350.28 25.3893 350.771 26.2853 350.771 27.352C350.771 27.8213 350.686 28.248 350.515 28.632C350.131 29.7413 349.299 30.296 348.019 30.296C346.611 30.296 345.907 29.5707 345.907 28.12C345.907 27.6933 345.971 27.3307 346.099 27.032C346.227 26.6053 346.696 26.1787 347.507 25.752C347.208 25.1973 346.654 24.92 345.843 24.92C345.118 24.92 344.584 25.0907 344.243 25.432C343.219 26.328 342.707 27.4587 342.707 28.824C342.707 29.7627 342.963 30.7867 343.475 31.896C343.56 32.0667 344.392 33.4107 345.971 35.928C347.038 37.6347 347.571 39.064 347.571 40.216C347.571 42.0507 346.718 43.672 345.011 45.08C343.304 46.5307 341.491 47.256 339.571 47.256ZM386.18 47C383.705 47 382.468 45.4213 382.468 42.264C382.468 40.8987 382.703 39.6187 383.172 38.424C379.972 44.056 376.9 46.872 373.956 46.872C373.785 46.872 373.615 46.872 373.444 46.872C373.273 46.8293 373.081 46.7867 372.868 46.744C370.735 46.1467 369.668 44.5253 369.668 41.88C369.668 39.9173 370.201 37.7413 371.268 35.352C371.78 34.2 372.335 33.112 372.932 32.088C373.572 31.0213 374.276 30.04 375.044 29.144C377.732 25.9013 380.804 24.28 384.26 24.28C385.796 24.28 387.225 24.664 388.548 25.432C389.273 24.024 390.127 22.0613 391.108 19.544C392.132 16.984 393.305 13.8907 394.628 10.264C395.14 8.856 395.673 7.93866 396.228 7.512C396.868 7.08533 397.721 6.89333 398.788 6.936L400.132 7.128C400.431 7.17066 400.687 7.21333 400.9 7.256C401.113 7.256 401.305 7.23466 401.476 7.192C401.049 7.66133 400.26 8.984 399.108 11.16C397.956 13.2933 396.463 16.3013 394.628 20.184C392.751 24.1093 391.151 27.608 389.828 30.68C388.548 33.752 387.524 36.3547 386.756 38.488C386.116 40.28 385.796 41.8373 385.796 43.16C385.796 44.6107 386.287 45.336 387.268 45.336C388.548 45.336 389.913 44.1627 391.364 41.816L391.62 41.496L392.644 42.008L392.388 42.328C390.425 45.4427 388.356 47 386.18 47ZM374.596 45.08C376.004 45.08 377.711 43.6933 379.716 40.92C381.849 37.8907 384.687 33.0693 388.228 26.456C387.716 25.944 387.097 25.688 386.372 25.688C384.623 25.688 382.575 26.8613 380.228 29.208C378.009 31.384 376.153 33.88 374.66 36.696C373.465 38.9147 372.868 40.856 372.868 42.52C372.868 44.2267 373.444 45.08 374.596 45.08ZM403.75 47.256C402.086 47.256 400.657 46.7227 399.462 45.656C398.822 45.0587 398.353 44.376 398.054 43.608C397.798 42.7973 397.67 41.88 397.67 40.856C397.67 36.9307 399.291 33.0267 402.534 29.144C405.265 25.8587 408.102 24.216 411.046 24.216C412.027 24.216 412.859 24.472 413.542 24.984C414.267 25.5813 414.63 26.3493 414.63 27.288C414.63 29.6347 413.073 31.9813 409.958 34.328C408.977 35.0533 407.675 35.6933 406.054 36.248C404.262 36.8453 402.961 37.144 402.15 37.144C401.553 38.5947 401.254 40.1307 401.254 41.752C401.254 44.5253 402.278 45.912 404.326 45.912C407.014 45.912 409.531 44.1627 411.878 40.664L412.134 40.28L413.222 40.728L413.03 41.112C411.963 43.2453 410.619 44.8027 408.998 45.784C407.377 46.7653 405.627 47.256 403.75 47.256ZM402.534 36.056C403.259 36.056 404.262 35.8213 405.542 35.352C406.267 35.0533 406.95 34.7333 407.59 34.392C408.273 34.0507 408.87 33.6667 409.382 33.24C411.729 31.2773 412.902 29.208 412.902 27.032C412.902 26.0933 412.561 25.624 411.878 25.624C410.683 25.624 408.87 27.096 406.438 30.04C405.201 31.5333 403.899 33.5387 402.534 36.056ZM448.799 52.888C443.935 52.888 440.095 52.0347 437.279 50.328C434.506 48.5787 433.119 46.296 433.119 43.48C433.119 40.3653 434.655 37.4427 437.727 34.712C441.012 31.8107 445.322 29.848 450.655 28.824C451.38 28.696 452.148 28.5893 452.959 28.504C453.77 28.4187 454.58 28.376 455.391 28.376C460.34 28.376 463.69 29.5707 465.439 31.96C465.61 32.1733 465.695 32.4507 465.695 32.792C465.695 33.4747 465.503 33.5813 465.119 33.112C463.583 30.936 460.234 29.848 455.071 29.848C453.45 29.848 451.999 29.976 450.719 30.232C446.239 31.0853 442.676 32.7707 440.031 35.288C437.514 37.6773 436.255 40.216 436.255 42.904C436.255 45.464 437.407 47.512 439.711 49.048C441.972 50.584 445.044 51.352 448.927 51.352C452.596 51.352 455.988 50.904 459.103 50.008C462.218 49.1547 465.076 47.9387 467.679 46.36C471.946 43.7573 474.079 40.3013 474.079 35.992C474.079 31.0427 470.986 26.584 464.799 22.616C463.22 21.592 461.898 20.696 460.831 19.928C459.764 19.1173 458.932 18.4347 458.335 17.88C456.074 15.704 454.943 13.4 454.943 10.968C454.943 10.328 455.007 9.73067 455.135 9.176C455.732 6.40267 457.588 4.16267 460.703 2.456C463.562 0.877331 466.655 0.0879974 469.983 0.0879974C473.78 0.0879974 476.66 0.749331 478.623 2.072C480.031 3.01067 480.735 4.44 480.735 6.36C480.735 7.59733 480.372 8.74933 479.647 9.816C478.964 10.84 478.068 11.352 476.959 11.352C476.148 11.352 475.423 11.032 474.783 10.392C474.228 9.83733 473.951 9.176 473.951 8.408C473.951 6.36 474.954 5.336 476.959 5.336C478.154 5.336 478.879 5.72 479.135 6.488C479.348 5.336 478.9 4.33333 477.791 3.48C476.042 2.11467 473.759 1.432 470.943 1.432C467.999 1.432 465.311 2.264 462.879 3.928C460.276 5.67733 458.975 7.704 458.975 10.008C458.975 12.9947 461.706 16.0667 467.167 19.224C474.804 23.576 478.623 28.6107 478.623 34.328C478.623 36.8453 477.812 39.2773 476.191 41.624C474.57 44.0133 472.415 45.976 469.727 47.512C463.583 51.096 456.607 52.888 448.799 52.888ZM489.703 47C486.588 47 485.031 45.1013 485.031 41.304C485.031 39.4267 485.479 37.4427 486.375 35.352C487.655 32.3227 489.468 29.7627 491.815 27.672C494.119 25.624 496.295 24.6 498.343 24.6C501.5 24.6 503.079 26.456 503.079 30.168C503.079 32.088 502.609 34.1147 501.671 36.248C500.561 38.808 498.961 41.1333 496.871 43.224C494.268 45.7413 491.879 47 489.703 47ZM490.727 45.592C491.708 45.592 492.753 45.1867 493.863 44.376C495.271 43.352 496.871 41.2187 498.663 37.976C500.625 34.4773 501.607 31.6613 501.607 29.528C501.607 27.608 500.796 26.648 499.175 26.648C497.895 26.648 496.444 27.4587 494.823 29.08C493.244 30.6587 491.9 32.664 490.791 35.096C489.297 38.296 488.551 40.856 488.551 42.776C488.551 44.6533 489.276 45.592 490.727 45.592ZM510.634 46.936C507.904 46.936 506.538 45.656 506.538 43.096C506.538 42.2 506.794 41.0053 507.306 39.512C507.818 37.976 508.544 36.1627 509.482 34.072L513.002 26.328C513.386 25.432 514.218 24.984 515.498 24.984H519.338C517.845 26.0933 516.48 27.8853 515.242 30.36C514.773 31.2987 514.197 32.472 513.514 33.88C512.874 35.2453 512.128 36.824 511.274 38.616C510.464 40.28 510.058 41.7733 510.058 43.096C510.058 44.4613 510.528 45.144 511.466 45.144C512.49 45.144 513.706 44.3333 515.114 42.712C517.461 39.9813 520.618 34.52 524.586 26.328C525.056 25.432 525.866 24.984 527.018 24.984H530.474C529.066 26.136 527.594 28.248 526.058 31.32C523.925 35.6293 522.645 38.9147 522.218 41.176C522.176 41.432 522.133 41.6667 522.09 41.88C522.09 42.0933 522.09 42.3067 522.09 42.52C522.09 44.184 522.666 45.016 523.818 45.016C525.056 45.016 526.506 43.8 528.17 41.368L529.13 41.816C526.826 45.2293 524.544 46.936 522.282 46.936C519.893 46.936 518.698 45.4213 518.698 42.392C518.698 41.24 518.912 40.024 519.338 38.744C516.181 44.2053 513.28 46.936 510.634 46.936ZM531.564 47L533.676 43.288C534.572 42.4347 537.068 39.6827 541.164 35.032H537.324L538.86 34.136H541.932C543.169 32.7707 544.279 31.5547 545.26 30.488C546.241 29.3787 547.073 28.4613 547.756 27.736C546.817 27.736 545.665 27.7787 544.3 27.864C542.935 27.9493 541.356 28.0773 539.564 28.248C539.137 28.5467 538.625 28.8667 538.028 29.208C537.985 29.208 537.943 29.2293 537.9 29.272C537.857 29.272 537.793 29.272 537.708 29.272C537.537 29.272 537.345 29.208 537.132 29.08L541.1 24.664L553.26 24.728L550.7 27.16C550.444 27.3733 549.761 28.0773 548.652 29.272C547.543 30.424 545.985 32.0453 543.98 34.136H549.292L547.756 35.032H543.148C542.807 35.416 542.444 35.8 542.06 36.184C541.719 36.5253 541.377 36.8667 541.036 37.208C540.609 37.6347 539.948 38.36 539.052 39.384C538.199 40.3653 537.089 41.6667 535.724 43.288C536.321 43.288 537.473 43.352 539.18 43.48C540.929 43.608 542.209 43.672 543.02 43.672C544.94 43.672 546.135 43.4373 546.604 42.968L547.628 41.944L548.46 42.584L544.492 46.936L531.564 47ZM569.735 47.128C568.796 47.128 568.028 46.8507 567.431 46.296C566.577 45.5707 566.151 44.3547 566.151 42.648C566.151 41.5387 566.343 40.28 566.727 38.872C565.276 41.304 563.761 43.288 562.183 44.824C560.561 46.3173 559.111 47.064 557.831 47.064C556.721 47.064 555.847 46.5733 555.207 45.592C554.524 44.6533 554.183 43.352 554.183 41.688C554.183 37.6347 555.996 33.4533 559.623 29.144C560.22 28.4187 560.903 27.7573 561.671 27.16C562.439 26.5627 563.271 26.0293 564.167 25.56C566.001 24.6213 567.772 24.152 569.479 24.152C571.569 24.152 573.233 24.8347 574.471 26.2C574.769 26.4987 574.919 26.84 574.919 27.224C574.919 27.9493 574.535 28.2267 573.767 28.056C573.34 26.52 572.337 25.752 570.759 25.752C568.967 25.752 566.855 27.0107 564.423 29.528C563.569 30.4667 562.759 31.448 561.991 32.472C561.223 33.4533 560.497 34.4987 559.815 35.608C557.98 38.68 557.063 41.176 557.063 43.096C557.063 44.5467 557.617 45.272 558.727 45.272C559.964 45.272 561.393 44.3333 563.015 42.456C563.911 41.432 564.828 40.1733 565.767 38.68C566.705 37.1867 567.687 35.4587 568.711 33.496C569.137 32.6853 569.521 32.024 569.863 31.512C570.204 31 570.481 30.616 570.695 30.36C571.377 29.6773 572.188 29.3573 573.127 29.4L574.407 29.592C574.961 29.72 575.431 29.7413 575.815 29.656C575.431 30.04 574.961 30.6587 574.407 31.512C573.895 32.3227 573.297 33.3893 572.615 34.712C571.889 36.12 571.292 37.4 570.823 38.552C570.353 39.704 570.033 40.728 569.863 41.624C569.777 42.0507 569.713 42.456 569.671 42.84C569.628 43.1813 569.607 43.5013 569.607 43.8C569.607 44.9093 569.905 45.464 570.503 45.464C571.356 45.464 572.529 44.5253 574.023 42.648L574.279 42.328L575.175 42.904L574.919 43.288C573.169 45.848 571.441 47.128 569.735 47.128Z" fill="black"/>
</svg>
